# xmcd
#
# Track frame offsets: 
#        150
#        19827
#        33625
#        48677
#        62507
#        81620
#        94155
#        109170
#        122490
#        134620
#        150107
#        167310
#        180820
#        193072
#        206147
#        221095
#        237037
#        250060
#
# Disc length: 3545 seconds
#
# Revision: 1
# Processed by: cddbd v1.5.2PL0 Copyright (c) Steve Scherf et al.
# Submitted via: ExactAudioCopyFreeDBPlugin 1.0
#
DISCID=f30dd712
DTITLE=John Hammond - Footwork
DYEAR=1978
DGENRE=Blues
TTITLE0=Preaching Blues
TTITLE1=Crossroad Blues
TTITLE2=Broke Down Engine
TTITLE3=Who Do You Love
TTITLE4=Forty Four Rifle Blues
TTITLE5=Ask Me Nice
TTITLE6=Driving Wheel
TTITLE7=Everybody Cryin' Mercy
TTITLE8=Go No Further
TTITLE9=Come On In My Kitchen
TTITLE10=Gambler Blues
TTITLE11=Sweet Home Chicago
TTITLE12=Five Long Years
TTITLE13=Tell Me Mama
TTITLE14=Ain't That Loving You Baby
TTITLE15=The Sky Is Crying
TTITLE16=Honest I Do
TTITLE17=Guitar King
EXTD=
EXTT0=
EXTT1=
EXTT2=
EXTT3=
EXTT4=
EXTT5=
EXTT6=
EXTT7=
EXTT8=
EXTT9=
EXTT10=
EXTT11=
EXTT12=
EXTT13=
EXTT14=
EXTT15=
EXTT16=
EXTT17=
PLAYORDER=
